<svg id="レイヤー_1" data-name="レイヤー 1" xmlns="http://www.w3.org/2000/svg" viewBox="0 0 271.33 313.31"><defs><style>.cls-1{fill:#c1272d;}.cls-2{fill:#fff;}.cls-3{fill:#bf9224;}</style></defs><path class="cls-1" d="M967.57,635.15a4.1,4.1,0,0,0-3,.44,4,4,0,0,0-1.89,2.36,3.81,3.81,0,0,0,.41,2.91,3.57,3.57,0,0,0,2.25,1.69,4,4,0,0,0,3-.45,3.77,3.77,0,0,0,1.52-5.2A3.76,3.76,0,0,0,967.57,635.15Z" transform="translate(-847.5 -398.67)"/><polygon class="cls-1" points="119.93 263.13 116.75 260.38 117.57 264.49 119.93 263.13"/><path class="cls-1" d="M1025.5,645.45a2.69,2.69,0,0,0-3.2,1.84c-.55,1.57.2,4.4,1.28,6.27.93,1.6,3,3.9,4.79,4.24a2.69,2.69,0,0,0,3.2-1.85c.56-1.61-.27-4.51-1.26-6.23S1027.1,645.77,1025.5,645.45Z" transform="translate(-847.5 -398.67)"/><polygon class="cls-1" points="9.67 112.66 9.67 229.39 21.56 236.25 21.56 105.8 9.67 112.66"/><polygon class="cls-1" points="226.35 201.68 223.18 198.94 224 203.04 226.35 201.68"/><polygon class="cls-1" points="56.04 127.25 56.04 168.4 91.68 188.98 127.32 168.4 127.32 127.25 91.68 106.67 56.04 127.25"/><polygon class="cls-1" points="150.01 19.45 135.66 11.17 32.11 70.96 32.11 87.52 150.01 19.45"/><polygon class="cls-1" points="203.17 215.07 205.52 213.71 202.35 210.96 203.17 215.07"/><path class="cls-1" d="M1032.4,566.79a3.34,3.34,0,0,0-2.5.53l-1.68,1L1031,573l1.64-1a3.69,3.69,0,0,0,1.74-1.79,2.54,2.54,0,0,0-.38-2.1A2.69,2.69,0,0,0,1032.4,566.79Z" transform="translate(-847.5 -398.67)"/><path class="cls-1" d="M1015.36,576.62a3.32,3.32,0,0,0-2.49.54l-1.68,1,2.72,4.72,1.65-1a3.72,3.72,0,0,0,1.73-1.79,2.53,2.53,0,0,0-.37-2.1A2.7,2.7,0,0,0,1015.36,576.62Z" transform="translate(-847.5 -398.67)"/><polygon class="cls-1" points="166.52 214.87 169.19 213.33 165.59 210.22 166.52 214.87"/><path class="cls-1" d="M937.37,622a2.49,2.49,0,0,0-1.52-1.13,2.24,2.24,0,0,0-1.7.22,2.37,2.37,0,0,0-1.18,1.56,2.49,2.49,0,0,0,.27,1.78,2.46,2.46,0,0,0,1.38,1,2.34,2.34,0,0,0,1.87-.24,2.23,2.23,0,0,0,1.06-1.37A2.44,2.44,0,0,0,937.37,622Z" transform="translate(-847.5 -398.67)"/><path class="cls-1" d="M1061.07,602.25a1.88,1.88,0,0,0-1.4.29l-.94.55,1.53,2.64.92-.54a2.05,2.05,0,0,0,1-1,1.38,1.38,0,0,0-.21-1.17A1.49,1.49,0,0,0,1061.07,602.25Z" transform="translate(-847.5 -398.67)"/><path class="cls-1" d="M941.37,633.74a2.41,2.41,0,0,0,1.21-1.57,2.53,2.53,0,0,0-.25-2,2.35,2.35,0,0,0-1.59-1.17,2.73,2.73,0,0,0-2,.26,2.8,2.8,0,0,0-1.21,1.58,2.54,2.54,0,0,0,1.79,3.17A2.65,2.65,0,0,0,941.37,633.74Z" transform="translate(-847.5 -398.67)"/><path class="cls-1" d="M1067.83,576.16a2.45,2.45,0,0,0-1.77.4l-.59.34,1.72,3,.59-.34a2.68,2.68,0,0,0,1.23-1.36,1.72,1.72,0,0,0-.18-1.24A1.65,1.65,0,0,0,1067.83,576.16Z" transform="translate(-847.5 -398.67)"/><polygon class="cls-1" points="21.56 77.05 9.67 83.91 9.67 100.48 21.56 93.61 21.56 77.05"/><path class="cls-1" d="M1054.84,555.42a6.57,6.57,0,0,0-4.68.69,6.29,6.29,0,0,0-3,3.73,6,6,0,0,0,.65,4.59,5.5,5.5,0,0,0,3.54,2.65,6.17,6.17,0,0,0,4.7-.7,5.9,5.9,0,0,0-1.24-11Z" transform="translate(-847.5 -398.67)"/><path class="cls-1" d="M1041,594.16l.57-.34a1.83,1.83,0,0,0,1-1.06,1.3,1.3,0,0,0-.17-1,1.43,1.43,0,0,0-.75-.65,2,2,0,0,0-1.4.33l-.58.34Z" transform="translate(-847.5 -398.67)"/><path class="cls-1" d="M879.61,498.38V641l103.55,59.79,126-72.74V482.59l-101.1-58.37ZM929,645.55l-8.54-14.77-2.7,1.55-2.41-4.17,7.62-4.4,10.94,19Zm4.16-9.3a6,6,0,0,1-.58-4.21,7.34,7.34,0,0,1,1.59-2.77,6,6,0,0,1-2.33-.1,4.79,4.79,0,0,1-3-2.27,5.7,5.7,0,0,1-.5-4.49,8.61,8.61,0,0,1,4.05-4.65,7.84,7.84,0,0,1,5.94-1,5.6,5.6,0,0,1,3.4,2.67,4.68,4.68,0,0,1,.54,3.63,6.26,6.26,0,0,1-1.26,2.28,6.68,6.68,0,0,1,3.28,0,5.33,5.33,0,0,1,3.39,2.51,6,6,0,0,1,.53,4.47c-.28,1-1.2,3.38-4.58,5.33s-5.64,1.59-6.8,1.28A6,6,0,0,1,933.15,636.25Zm53-49,4.92-2.83,10.95,19-4.92,2.84-15.76-6.36,6.69,11.6-4.91,2.84-11-19,4.92-2.84,15.76,6.36Zm91.91-14.65,3.51-2,1.53,2.65-3.51,2,1.19,2.07,3.72-2.14,1.53,2.64-6.83,3.95-7-12,6.84-4,1.53,2.65-3.72,2.15Zm-5.62,5.4a3.81,3.81,0,0,1-1.18,1.79l6.61,2.74-3.87,2.24-5.66-2.89,2.67,4.62-3.12,1.8-7-12,4.87-2.81a4.48,4.48,0,0,1,3.55-.63A4.57,4.57,0,0,1,1072,575,4,4,0,0,1,1072.45,578Zm-8.88,33.46-2.75,1.59-6.12-10.61,4.39-2.54a4.21,4.21,0,0,1,3.23-.59,3.78,3.78,0,0,1,2.48,2,4,4,0,0,1,.58,3.19,4.08,4.08,0,0,1-2.1,2.44l-1.74,1Zm-12.14,7-2.91,1.68-2-13,3-1.74,10.12,8.31-2.94,1.7-1.68-1.41-3.85,2.22Zm-2.26-27.36a7.23,7.23,0,0,1-.71-5.6,8.29,8.29,0,0,1,9.48-5.48,7.27,7.27,0,0,1,5.2,9,8.3,8.3,0,0,1-9.48,5.47A7.25,7.25,0,0,1,1049.17,591.12Zm15.52-27.1a13.08,13.08,0,0,1-15,8.63,11.45,11.45,0,0,1-8.19-14.18,13.08,13.08,0,0,1,15-8.63,11.44,11.44,0,0,1,8.19,14.18ZM1042.91,588a3.7,3.7,0,0,1,2,1.83,3.38,3.38,0,0,1,.51,1.67,2.15,2.15,0,0,1-.43,1.5,3.49,3.49,0,0,1,2.06-.22,3.43,3.43,0,0,1,2.08,1.73,3.74,3.74,0,0,1,.48,2.87,5.23,5.23,0,0,1-2.61,3l-5,2.89-6.94-12,4.65-2.69A3.91,3.91,0,0,1,1042.91,588Zm-.32,31.13-4.17-7.23,2.75-1.59,4.21,7.3a3.55,3.55,0,0,1,.56,3.07,3.94,3.94,0,0,1-2,2.5,3.18,3.18,0,0,1-1.94.48,4.45,4.45,0,0,1-1.68-.47l.73-2.89a1.75,1.75,0,0,0,.87.63,1.06,1.06,0,0,0,.64-.12.89.89,0,0,0,.37-.45A1.86,1.86,0,0,0,1042.59,619.08Zm-11.45,11.11-2.75,1.59-6.13-10.61,4.3-2.48a4,4,0,0,1,3.13-.56A4.05,4.05,0,0,1,1032,620a3.53,3.53,0,0,1,.43,2.69,3.38,3.38,0,0,1-1,1.58l5.83,2.42-3.42,2-5-2.55Zm-28.05,11.4a3.23,3.23,0,0,0-2-3.4,3.06,3.06,0,0,0-.48-.17c-.12,0-.23,0-.34,0a3.66,3.66,0,0,0-2.28.43,3.59,3.59,0,0,0-1.45,1.56,2.39,2.39,0,0,0-.15.37.76.76,0,0,0-.06.16,3.38,3.38,0,0,0,.36,2.57,3.08,3.08,0,0,0,2,1.48,1.2,1.2,0,0,0,.2,0,3.32,3.32,0,0,1-3.6,1.62l-.31-.11a6.23,6.23,0,0,1-1.16-1.42,6.6,6.6,0,0,1-.66-1.7,7.43,7.43,0,0,1-.16-.82,6,6,0,0,1,.19-2.42A6.51,6.51,0,0,1,994.9,637a7,7,0,0,1,.55-.54,7.85,7.85,0,0,1,1-.73,7,7,0,0,1,5.09-.84,6.42,6.42,0,0,1,4.58,7.94,7,7,0,0,1-3.27,4,8.7,8.7,0,0,1-1.16.54A6.83,6.83,0,0,0,1003,645,6.6,6.6,0,0,0,1003.09,641.59Zm-31.45-13.74,3.12-1.8,4.11,7.12a2.76,2.76,0,0,0,1.68,1.5,2.54,2.54,0,0,0,3-1.63,3,3,0,0,0-.55-2.58l-4-6.86,3.12-1.8,4,6.91a5.62,5.62,0,0,1,.89,4.67,6,6,0,0,1-3.1,3.79,6.23,6.23,0,0,1-4.81.86,6.46,6.46,0,0,1-3.46-3.27Zm2.18,12.75a8.29,8.29,0,0,1-9.48,5.48,7.27,7.27,0,0,1-5.19-9,8.3,8.3,0,0,1,9.48-5.47,7.26,7.26,0,0,1,5.19,9Zm11.22-17L983.51,621l8.23-4.76,1.54,2.65-2.56,1.48,5.41,9.38-3.12,1.8-5.41-9.38Zm19.83-4-4.74-8.2,3.12-1.8,4.78,8.27a4,4,0,0,1,.64,3.48,4.49,4.49,0,0,1-2.29,2.83,3.65,3.65,0,0,1-2.2.56,5.12,5.12,0,0,1-1.9-.54l.83-3.27a2,2,0,0,0,1,.7,1.24,1.24,0,0,0,.72-.12,1.07,1.07,0,0,0,.42-.51A2.11,2.11,0,0,0,1004.87,619.6Zm-2.62,13.13,3-1.74,6.28,5-1.16-7.94,3-1.73,1.61,13.22-2.14,1.24Zm12.64-13.82-3.3,1.91-2.33-14.69,3.41-2,11.46,9.42-3.33,1.92-1.91-1.59-4.36,2.52Zm-.41,6.75,6-3.48,1.35,2.34-3.27,1.89,1,1.77,3.11-1.79,1.34,2.34-3.1,1.79,1.06,1.83,3.28-1.89,1.35,2.33-6,3.48Zm22.44-19.47-4.88-6.41,1.1,8.6-1.25.72-6.77-5.32,3,7.51-3.1,1.79-4.91-13.2,3.08-1.78,6.14,5-1.12-7.91,3.12-1.8,8.74,11Zm3.19-35.36a7.31,7.31,0,0,1-3.77,4.37l-3.1,1.79,3.63,6.28-4.92,2.84-10.94-19,7.84-4.53a7.58,7.58,0,0,1,5.79-1.07,6.8,6.8,0,0,1,4.42,3.59A7.12,7.12,0,0,1,1040.11,570.83ZM1022,575a7.09,7.09,0,0,1,1,5.69,7.26,7.26,0,0,1-3.76,4.37l-3.1,1.79,3.63,6.28-4.92,2.84L1004,577l7.85-4.53a7.53,7.53,0,0,1,5.79-1.06A6.78,6.78,0,0,1,1022,575Zm-11.09,23.27-4.92,2.84-10.95-19,4.92-2.84ZM975,619l-4.25,2.45-3.5-6.07a5.51,5.51,0,0,0-1.37-1.76,2,2,0,0,0-2.23.06,2.63,2.63,0,0,0-1.32,1.82,3.15,3.15,0,0,0,.52,1.93l3.72,6.44-4.25,2.45-11.22-19.43,4.25-2.45,5.15,8.93a6.26,6.26,0,0,1,.9-2.36,6,6,0,0,1,1.92-1.63,5.21,5.21,0,0,1,4.24-.68,4.13,4.13,0,0,1,1.66.84,7.71,7.71,0,0,1,1.37,1.83ZM951.4,616.6l2.41-1.39,2,3.52-2.42,1.4,4.9,8.48-4.24,2.45-4.9-8.48-1.41.81-2-3.53,1.4-.81-2.08-3.61,4.24-2.44Zm-1.82,38.74a5.35,5.35,0,0,1-2.84,3.28,7.48,7.48,0,0,1-2.59,1,9.76,9.76,0,0,1-2.38.09l-.12-3.29a4.83,4.83,0,0,0,3.47-.37,1.85,1.85,0,0,0,1-1.11A1.29,1.29,0,0,0,946,654a1.1,1.1,0,0,0-.76-.53,5,5,0,0,0-1.92.27l-.95.21a4.55,4.55,0,0,1-2.3,0,3.46,3.46,0,0,1-1.91-1.73,4.57,4.57,0,0,1-.58-3.54,4.92,4.92,0,0,1,2.43-2.92,10,10,0,0,1,4.28-1.17l.16,3.16a3.68,3.68,0,0,0-2.53.37,1.78,1.78,0,0,0-.82,1,1.09,1.09,0,0,0,.07.83,1,1,0,0,0,.48.45,2.21,2.21,0,0,0,1.35-.06l1.13-.27A5.31,5.31,0,0,1,947,650a3.3,3.3,0,0,1,2,1.7A4.7,4.7,0,0,1,949.58,655.34Zm9.75-4a7.57,7.57,0,0,1-5.7.89,7.37,7.37,0,0,1-4.35-3.33,7.53,7.53,0,0,1-.74-5.49,7.4,7.4,0,0,1,3.46-4.5,8.78,8.78,0,0,1,3.17-1l2.16,3.73a3.89,3.89,0,0,0-3.49.26,3.51,3.51,0,0,0-1.7,2,3.91,3.91,0,0,0,2.71,4.86,3.9,3.9,0,0,0,2.71-.47,4.06,4.06,0,0,0,2-2.83l2.14,3.7A8.72,8.72,0,0,1,959.33,651.35Zm11.72,13.54-1.68-1.41-3.85,2.22.31,2.2-2.91,1.68-2-13,3-1.74L974,663.19Zm4.17-2.41-6.12-10.61,2.75-1.59,4.78,8.27,3.3-1.91,1.35,2.34Zm7.48-4.32-6.12-10.61,2.75-1.59,4.78,8.27,3.3-1.91,1.35,2.34Zm11.61-8.49a6.39,6.39,0,0,1-4.58-7.93,7,7,0,0,1,3.27-4,7.18,7.18,0,0,1,1.16-.54,6.89,6.89,0,0,0-1.31,2.4,6.52,6.52,0,0,0,0,3.37,3.4,3.4,0,0,0,.43,2.09,3.08,3.08,0,0,0,1.57,1.35,2.58,2.58,0,0,0,.42.14c.13,0,.26,0,.4.06a3.45,3.45,0,0,0,2.23-.46,3.52,3.52,0,0,0,1.46-1.52c0-.13.1-.26.14-.38s0-.1,0-.16a3.27,3.27,0,0,0-2.35-4.07l-.18,0a3.33,3.33,0,0,1,1.25-1.28,3.24,3.24,0,0,1,2.34-.34,2.6,2.6,0,0,1,.36.13,6.81,6.81,0,0,1,1.13,1.4,6.64,6.64,0,0,1,.64,1.68,6,6,0,0,1,.17.86,6.22,6.22,0,0,1-.19,2.38,6.55,6.55,0,0,1-1.68,2.73,6.88,6.88,0,0,1-.55.53,7.57,7.57,0,0,1-1.05.73A7,7,0,0,1,994.31,649.67Zm12,27.22,2-8.29a39,39,0,0,0,1.19-7.49,6.52,6.52,0,0,0-.73-3.77,3.46,3.46,0,0,0-1.72-1.58,2.26,2.26,0,0,0-1.83.25,2.52,2.52,0,0,0-1.28,1.82,5.85,5.85,0,0,0,.71,2.9l-5.41,3.12a9.27,9.27,0,0,1-1-6.88,10,10,0,0,1,11.34-6.66,7.76,7.76,0,0,1,4.82,3.82c1.46,2.53,1.3,5,.46,7.7l-1.57,5.1,6.59-3.8,2.56,4.44Zm30.9-20.29A9.11,9.11,0,0,1,1026.1,663a13.21,13.21,0,0,1-7.73-6.49c-2-3.57-2.55-7.15-1.77-10a9.09,9.09,0,0,1,11.12-6.42c2.84.74,5.69,3,7.74,6.52A13.2,13.2,0,0,1,1037.22,656.6Zm5.36-.64,2-8.29a39.09,39.09,0,0,0,1.19-7.49,6.6,6.6,0,0,0-.73-3.77,3.51,3.51,0,0,0-1.72-1.59,2.3,2.3,0,0,0-1.83.25,2.52,2.52,0,0,0-1.28,1.83,5.73,5.73,0,0,0,.71,2.89l-5.41,3.13a9.23,9.23,0,0,1-1-6.88,10,10,0,0,1,11.33-6.66,7.75,7.75,0,0,1,4.83,3.82c1.46,2.53,1.29,5,.46,7.7l-1.57,5.09,6.58-3.8,2.57,4.44Zm18.13-10.47,2-8.29a39,39,0,0,0,1.19-7.49,6.6,6.6,0,0,0-.73-3.77,3.46,3.46,0,0,0-1.72-1.58,2.26,2.26,0,0,0-1.83.25,2.52,2.52,0,0,0-1.28,1.82,5.75,5.75,0,0,0,.71,2.9l-5.41,3.12a9.23,9.23,0,0,1-1-6.88,10,10,0,0,1,11.33-6.66,7.75,7.75,0,0,1,4.83,3.82c1.46,2.53,1.29,5,.46,7.7l-1.57,5.1,6.58-3.8,2.57,4.44Zm16.77-42L1075.8,602l-3.85,2.23.31,2.19-2.91,1.68-2-13,3-1.73,10.12,8.3Zm12-6.93-8.82-3.56,3.74,6.49-2.75,1.59-6.12-10.61,2.75-1.59,8.82,3.56-3.75-6.49,2.75-1.59,6.13,10.61Zm.13-24.27,3.72-2.15,1.53,2.65-6.83,4-7-12,6.84-3.94,1.53,2.65-3.72,2.14,1.16,2,3.51-2,1.53,2.65-3.51,2ZM1080.15,533l10.94,19-4.91,2.84-15.77-6.36,6.7,11.59-4.92,2.84-10.94-19,4.91-2.84,15.77,6.36-6.7-11.6Zm-12.94-60.42v53.34L1021,552.59,985.37,532v41.16l-46.19,26.67L893,573.17V519.83l46.2-26.67,35.64,20.57V472.58l46.2-26.67Z" transform="translate(-847.5 -398.67)"/><path class="cls-1" d="M1043.75,599l.7-.41c.86-.5,1.53-1,1.65-1.6a1.35,1.35,0,0,0-.2-.92,1.43,1.43,0,0,0-.8-.69,3.35,3.35,0,0,0-2.16.72l-.65.37Z" transform="translate(-847.5 -398.67)"/><path class="cls-1" d="M1056.66,519.83V478.67L1021,458.09l-35.65,20.58v41.16L1021,540.4Zm-40.7.45c-1.2,1-3.38,2.59-5.77,2.59a6.88,6.88,0,0,1-3.52-1.42,6.68,6.68,0,0,1-2-5.05c.08-1.08.91-3.57,2.35-3.41,1,.1,1,1.53,1.76,2.11a3.49,3.49,0,0,0,4.27-.51,2.26,2.26,0,0,1-.78-1.49v0a2,2,0,0,1,.54-1.46,1.7,1.7,0,0,1,.72-.47v-.59c-.23,0-.55,0-.63-.14.1-1.82-1.38-2.07-1.06-4.12-1.63-1.49-3.86-3.58-6.59-2.35a5.17,5.17,0,0,0-2.23,2.59c-.27.71-.06,1.81-.94,2.23-.8-.25-.94-1.07-1.41-1.64-1.16-1.41-2.41-2.37-3.41-3.65A11.15,11.15,0,0,1,995,498.4v-1.88a9,9,0,0,1,9.18-7.53c3.48.1,5.55,2.07,7.76,4,0,.18.32.39.24,0-.15-2.94-.54-5.86,0-8.35a17.4,17.4,0,0,1,1.76-4.23,88.68,88.68,0,0,1,7.06-10.66,89.84,89.84,0,0,1,7,10.66,17.84,17.84,0,0,1,1.77,4.23c.54,2.49.15,5.41,0,8.35-.09.39.23.18.23,0,2.21-1.93,4.28-3.9,7.76-4a9,9,0,0,1,9.18,7.53v1.88a11.15,11.15,0,0,1-2.24,5.06c-1,1.28-2.25,2.24-3.41,3.65-.47.57-.61,1.39-1.41,1.64-.88-.42-.67-1.52-.94-2.23a5.08,5.08,0,0,0-2.23-2.59c-2.73-1.23-5,.86-6.59,2.35.32,2.05-1.16,2.3-1.06,4.12-.07.18-.4.11-.63.14v.59a1.8,1.8,0,0,1,.73.47,2.14,2.14,0,0,1,.54,1.46v0a2.32,2.32,0,0,1-.79,1.49,3.49,3.49,0,0,0,4.27.51c.77-.58.81-2,1.76-2.11,1.44-.16,2.27,2.33,2.36,3.41a6.72,6.72,0,0,1-2,5.05,6.88,6.88,0,0,1-3.52,1.42c-2.38,0-4.56-1.63-5.77-2.59a18.78,18.78,0,0,1-5,8.47A18.71,18.71,0,0,1,1016,520.28Z" transform="translate(-847.5 -398.67)"/><path class="cls-1" d="M1028.33,621.06a2.2,2.2,0,0,0-1.56.35l-.52.3,1.51,2.63.53-.3a2.41,2.41,0,0,0,1.09-1.2,1.6,1.6,0,0,0-.17-1.1A1.44,1.44,0,0,0,1028.33,621.06Z" transform="translate(-847.5 -398.67)"/><path class="cls-1" d="M1057.68,590.53a3.75,3.75,0,0,0-.79-6.95,4.19,4.19,0,0,0-3,.44,4,4,0,0,0-1.88,2.36,3.84,3.84,0,0,0,.41,2.92,3.51,3.51,0,0,0,2.24,1.68A4,4,0,0,0,1057.68,590.53Z" transform="translate(-847.5 -398.67)"/><path class="cls-1" d="M1023.84,515h-5.65v0c-1.86,4.24.87,8.26,2.83,10.7,2-2.44,4.69-6.46,2.82-10.7Z" transform="translate(-847.5 -398.67)"/><path class="cls-1" d="M1017.25,492.29c.44-1.17,1.94-1.27,2.94-1.88.14-3.87,0-10.43.35-14.47.05-.51-.14-1.31.48-1.4.61.09.42.89.47,1.4.39,4,.21,10.6.35,14.47,1,.61,2.5.71,2.94,1.88a3.51,3.51,0,0,1,3.06.82c2.43-9-3.34-15.31-6.82-20.41-3.49,5.1-9.26,11.41-6.82,20.41A3.49,3.49,0,0,1,1017.25,492.29Z" transform="translate(-847.5 -398.67)"/><path class="cls-1" d="M1014.66,515c-1,2.88-5.92,3.51-7.4.94-.16,0-.22-.49-.24,0a3.76,3.76,0,0,0,4.35,4.7c2.87-.34,4.53-2.88,5-5.67h-1.72Z" transform="translate(-847.5 -398.67)"/><path class="cls-1" d="M1011.73,497.93a5.42,5.42,0,0,1,.35-2.35c-1.83-2.05-4-4.36-7.29-4.7-4.18-.43-8.13,2.57-8,6.7s2.78,5.73,4.94,8a5.29,5.29,0,0,1,4.23-3.77,15.31,15.31,0,0,1,3.88.59c-.15-.2-.4-.31-.35-.7C1010.47,500.68,1010.63,498.84,1011.73,497.93Zm-6.66-.11,1.12,3.39-3-2.06-2.9,2.08,1.16-3.41-2.64-1.92h3.32l1.06-3.16,1.14,3.14h3.37Z" transform="translate(-847.5 -398.67)"/><path class="cls-1" d="M1014.16,514H1021a6.57,6.57,0,0,1-.45-.51,18.83,18.83,0,0,0-2.11-.83,3.78,3.78,0,0,1-.73-.59H1014a.91.91,0,0,0-.77,1C1013.28,513.23,1013.43,514,1014.16,514Z" transform="translate(-847.5 -398.67)"/><path class="cls-1" d="M1030.66,520.63a3.76,3.76,0,0,0,4.35-4.7c0-.49-.08,0-.23,0-1.48,2.57-6.38,1.94-7.41-.94v0h-1.72C1026.13,517.75,1027.79,520.29,1030.66,520.63Z" transform="translate(-847.5 -398.67)"/><path class="cls-1" d="M1024.33,512a3.78,3.78,0,0,1-.73.59,18.83,18.83,0,0,0-2.11.83,6.57,6.57,0,0,1-.45.51h6.83c.73,0,.88-.74.91-.94,0-.62-.4-1-.77-1Z" transform="translate(-847.5 -398.67)"/><path class="cls-1" d="M1030.31,497.93c1.09.91,1.25,2.75,2.23,3.77,0,.39-.2.5-.35.7a15.31,15.31,0,0,1,3.88-.59,5.26,5.26,0,0,1,4.23,3.77c2.16-2.27,4.82-3.94,4.94-8s-3.81-7.13-8-6.7c-3.33.34-5.45,2.65-7.28,4.7A5.58,5.58,0,0,1,1030.31,497.93Zm7.36-2.05,1.15-3.14,1,3.16h3.33l-2.65,1.92,1.16,3.41-2.9-2.08-3,2.06,1.13-3.39-2.67-1.94Z" transform="translate(-847.5 -398.67)"/><path class="cls-1" d="M1017.72,510.4c.5,1.34,2.1,1.58,3.3,2.22,1.19-.64,2.79-.88,3.29-2.22,1.65.88,2.4-.89,4-.82.25-1.6,1.42-2.28.94-4,.17-.42.68-.5.94-.83.42-.95.55-2.19,1.29-2.82-.93-.87-.66-2.94-2.11-3.29.4-2.17-.9-2.63-.94-4.35-1.49-.2-1.9-1.48-3.88-1.18-.46-.23-.6-.66-1.06-.94-.76-.45-1.86-.43-2.36-1.17l-.11-.19-.12.19c-.5.74-1.6.72-2.36,1.17-.45.28-.6.71-1,.94-2-.3-2.4,1-3.88,1.18,0,1.72-1.35,2.18-1,4.35-1.44.35-1.18,2.42-2.11,3.29.75.63.88,1.87,1.29,2.82.26.33.77.41.94.83-.48,1.72.69,2.4.94,4C1015.32,509.51,1016.07,511.28,1017.72,510.4Z" transform="translate(-847.5 -398.67)"/><polygon class="cls-2" points="155.72 94.06 154.66 97.22 151.34 97.22 153.98 99.14 152.83 102.56 155.73 100.47 158.69 102.54 157.57 99.14 160.23 97.2 156.86 97.2 155.72 94.06"/><polygon class="cls-2" points="188.34 102.54 191.31 100.47 194.21 102.56 193.06 99.14 195.7 97.22 192.37 97.22 191.32 94.06 190.17 97.2 186.8 97.2 189.47 99.14 188.34 102.54"/><path class="cls-2" d="M1031.84,522.87a6.88,6.88,0,0,0,3.52-1.42,6.72,6.72,0,0,0,2-5.05c-.09-1.08-.92-3.57-2.36-3.41-1,.1-1,1.53-1.76,2.11a3.49,3.49,0,0,1-4.27-.51,2.32,2.32,0,0,0,.79-1.49v0a2.14,2.14,0,0,0-.54-1.46,1.8,1.8,0,0,0-.73-.47v-.59c.23,0,.56,0,.63-.14-.1-1.82,1.38-2.07,1.06-4.12,1.63-1.49,3.86-3.58,6.59-2.35a5.08,5.08,0,0,1,2.23,2.59c.27.71.06,1.81.94,2.23.8-.25.94-1.07,1.41-1.64,1.16-1.41,2.41-2.37,3.41-3.65a11.15,11.15,0,0,0,2.24-5.06v-1.88a9,9,0,0,0-9.18-7.53c-3.48.1-5.55,2.07-7.76,4,0,.18-.32.39-.23,0,.15-2.94.54-5.86,0-8.35a17.84,17.84,0,0,0-1.77-4.23,89.84,89.84,0,0,0-7-10.66,88.68,88.68,0,0,0-7.06,10.66,17.4,17.4,0,0,0-1.76,4.23c-.54,2.49-.15,5.41,0,8.35.08.39-.24.18-.24,0-2.21-1.93-4.28-3.9-7.76-4a9,9,0,0,0-9.18,7.53v1.88a11.15,11.15,0,0,0,2.24,5.06c1,1.28,2.25,2.24,3.41,3.65.47.57.61,1.39,1.41,1.64.88-.42.67-1.52.94-2.23a5.17,5.17,0,0,1,2.23-2.59c2.73-1.23,5,.86,6.59,2.35-.32,2.05,1.16,2.3,1.06,4.12.08.18.4.11.63.14v.59a1.7,1.7,0,0,0-.72.47,2,2,0,0,0-.54,1.46v0a2.26,2.26,0,0,0,.78,1.49,3.49,3.49,0,0,1-4.27.51c-.77-.58-.8-2-1.76-2.11-1.44-.16-2.27,2.33-2.35,3.41a6.68,6.68,0,0,0,2,5.05,6.88,6.88,0,0,0,3.52,1.42c2.39,0,4.57-1.63,5.77-2.59a18.71,18.71,0,0,0,5.06,8.47,18.78,18.78,0,0,0,5-8.47C1027.28,521.24,1029.46,522.87,1031.84,522.87Zm-3.06-9.84c0,.2-.18.94-.91.94H1021a6.57,6.57,0,0,0,.45-.51,18.83,18.83,0,0,1,2.11-.83,3.78,3.78,0,0,0,.73-.59H1028C1028.38,512,1028.77,512.41,1028.78,513Zm8.46-22.15c4.19-.43,8.13,2.57,8,6.7s-2.78,5.73-4.94,8a5.26,5.26,0,0,0-4.23-3.77,15.31,15.31,0,0,0-3.88.59c.15-.2.4-.31.35-.7-1-1-1.14-2.86-2.23-3.77a5.58,5.58,0,0,0-.35-2.35C1031.79,493.53,1033.91,491.22,1037.24,490.88ZM1021,472.7c3.48,5.1,9.25,11.41,6.82,20.41a3.51,3.51,0,0,0-3.06-.82c-.44-1.17-1.94-1.27-2.94-1.88-.14-3.87,0-10.43-.35-14.47,0-.51.14-1.31-.47-1.4-.62.09-.43.89-.48,1.4-.39,4-.21,10.6-.35,14.47-1,.61-2.5.71-2.94,1.88a3.49,3.49,0,0,0-3,.82C1011.76,484.11,1017.53,477.8,1021,472.7ZM1006,501.81a5.29,5.29,0,0,0-4.23,3.77c-2.16-2.27-4.82-3.94-4.94-8s3.82-7.13,8-6.7c3.33.34,5.46,2.65,7.29,4.7a5.42,5.42,0,0,0-.35,2.35c-1.1.91-1.26,2.75-2.24,3.77,0,.39.2.5.35.7A15.31,15.31,0,0,0,1006,501.81Zm6.82,3.77c-.17-.42-.68-.5-.94-.83-.41-.95-.54-2.19-1.29-2.82.93-.87.67-2.94,2.11-3.29-.4-2.17.91-2.63,1-4.35,1.48-.2,1.89-1.48,3.88-1.18.45-.23.6-.66,1-.94.76-.45,1.86-.43,2.36-1.17l.12-.19.11.19c.5.74,1.6.72,2.36,1.17.46.28.6.71,1.06.94,2-.3,2.39,1,3.88,1.18,0,1.72,1.34,2.18.94,4.35,1.45.35,1.18,2.42,2.11,3.29-.74.63-.87,1.87-1.29,2.82-.26.33-.77.41-.94.83.48,1.72-.69,2.4-.94,4-1.6-.07-2.35,1.7-4,.82-.5,1.34-2.1,1.58-3.29,2.22-1.2-.64-2.8-.88-3.3-2.22-1.65.88-2.4-.89-4-.82C1013.47,508,1012.3,507.3,1012.78,505.58ZM1014,512h3.68a3.78,3.78,0,0,0,.73.59,18.83,18.83,0,0,1,2.11.83,6.57,6.57,0,0,0,.45.51h-6.83c-.73,0-.88-.74-.91-.94A.91.91,0,0,1,1014,512Zm-2.65,8.59a3.76,3.76,0,0,1-4.35-4.7c0-.49.08,0,.24,0,1.48,2.57,6.37,1.94,7.4-.94v0h1.72C1015.9,517.75,1014.24,520.29,1011.37,520.63Zm9.65,5.06c-2-2.44-4.69-6.46-2.83-10.7v0h5.65v0C1025.71,519.23,1023,523.25,1021,525.69Zm6.35-10.73v0c1,2.88,5.93,3.51,7.41.94.15,0,.21-.49.23,0a3.76,3.76,0,0,1-4.35,4.7c-2.87-.34-4.53-2.88-5-5.67Z" transform="translate(-847.5 -398.67)"/><path class="cls-2" d="M985.37,573.17V532L1021,552.59l46.19-26.67V472.58L1021,445.91l-46.2,26.67v41.15l-35.64-20.57L893,519.83v53.34l46.2,26.67Zm0-94.5L1021,458.09l35.64,20.58v41.16L1021,540.4l-35.65-20.57Zm-81.83,47.25,35.64-20.58,35.64,20.58v41.15l-35.64,20.58-35.64-20.58Z" transform="translate(-847.5 -398.67)"/><polygon class="cls-2" points="150.01 19.45 32.11 87.52 32.11 70.96 21.56 77.05 21.56 93.61 9.67 100.48 9.67 112.66 21.56 105.8 21.56 236.25 32.11 242.35 32.11 99.71 160.56 25.55 150.01 19.45"/><polygon class="cls-2" points="67.84 229.48 70.25 233.66 72.95 232.1 81.49 246.88 86.4 244.04 75.46 225.08 67.84 229.48"/><path class="cls-2" d="M943.6,637.68c3.38-1.95,4.3-4.3,4.58-5.33a6,6,0,0,0-.53-4.47,5.33,5.33,0,0,0-3.39-2.51,6.68,6.68,0,0,0-3.28,0,6.26,6.26,0,0,0,1.26-2.28,4.68,4.68,0,0,0-.54-3.63,5.6,5.6,0,0,0-3.4-2.67,7.84,7.84,0,0,0-5.94,1,8.61,8.61,0,0,0-4.05,4.65,5.7,5.7,0,0,0,.5,4.49,4.79,4.79,0,0,0,3,2.27,6,6,0,0,0,2.33.1,7.34,7.34,0,0,0-1.59,2.77A5.68,5.68,0,0,0,936.8,639C938,639.27,940.36,639.55,943.6,637.68Zm-7.11-12.45a2.34,2.34,0,0,1-1.87.24,2.46,2.46,0,0,1-1.38-1,2.49,2.49,0,0,1-.27-1.78,2.37,2.37,0,0,1,1.18-1.56,2.24,2.24,0,0,1,1.7-.22,2.49,2.49,0,0,1,1.52,1.13,2.44,2.44,0,0,1,.18,1.83A2.23,2.23,0,0,1,936.49,625.23Zm1.29,7.55a2.58,2.58,0,0,1-.22-1.95,2.8,2.8,0,0,1,1.21-1.58,2.73,2.73,0,0,1,2-.26,2.35,2.35,0,0,1,1.59,1.17,2.53,2.53,0,0,1,.25,2,2.41,2.41,0,0,1-1.21,1.57,2.65,2.65,0,0,1-2,.26A2.59,2.59,0,0,1,937.78,632.78Z" transform="translate(-847.5 -398.67)"/><polygon class="cls-2" points="124.68 196.66 135.63 215.62 140.54 212.78 133.85 201.19 149.61 207.55 154.53 204.71 143.58 185.75 138.67 188.59 145.36 200.19 129.6 193.82 124.68 196.66"/><rect class="cls-2" x="1000.17" y="579.24" width="5.68" height="21.89" transform="translate(-1008.21 181.9) rotate(-30)"/><path class="cls-2" d="M1017.61,571.39a7.53,7.53,0,0,0-5.79,1.06L1004,577l10.95,19,4.92-2.84-3.63-6.28,3.1-1.79a7.26,7.26,0,0,0,3.76-4.37,7.09,7.09,0,0,0-1-5.69A6.78,6.78,0,0,0,1017.61,571.39Zm-.32,8.71a3.72,3.72,0,0,1-1.73,1.79l-1.65,1-2.72-4.72,1.68-1a3.32,3.32,0,0,1,2.49-.54,2.7,2.7,0,0,1,1.56,1.38A2.53,2.53,0,0,1,1017.29,580.1Z" transform="translate(-847.5 -398.67)"/><path class="cls-2" d="M1040.11,570.83a7.12,7.12,0,0,0-1-5.69,6.8,6.8,0,0,0-4.42-3.59,7.58,7.58,0,0,0-5.79,1.07l-7.84,4.53,10.94,19,4.92-2.84-3.63-6.28,3.1-1.79A7.31,7.31,0,0,0,1040.11,570.83Zm-5.78-.57a3.69,3.69,0,0,1-1.74,1.79l-1.64,1-2.73-4.72,1.68-1a3.34,3.34,0,0,1,2.5-.53,2.69,2.69,0,0,1,1.55,1.37A2.54,2.54,0,0,1,1034.33,570.26Z" transform="translate(-847.5 -398.67)"/><path class="cls-2" d="M1064.69,564a11.44,11.44,0,0,0-8.19-14.18,13.08,13.08,0,0,0-15,8.63,11.45,11.45,0,0,0,8.19,14.18,13.08,13.08,0,0,0,15-8.63ZM1059,562.7a6,6,0,0,1-3,3.68,6.17,6.17,0,0,1-4.7.7,5.5,5.5,0,0,1-3.54-2.65,6,6,0,0,1-.65-4.59,6.29,6.29,0,0,1,3-3.73,6.57,6.57,0,0,1,4.68-.69,6,6,0,0,1,3.63,2.75A6,6,0,0,1,1059,562.7Z" transform="translate(-847.5 -398.67)"/><polygon class="cls-2" points="218.67 142.4 213.75 145.24 224.69 164.2 229.61 161.36 222.92 149.76 238.68 156.13 243.59 153.29 232.65 134.33 227.73 137.17 234.43 148.76 218.67 142.4"/><polygon class="cls-2" points="100.29 224.72 101.69 223.9 106.59 232.39 110.83 229.94 105.93 221.46 108.35 220.06 106.31 216.53 103.9 217.93 101.81 214.32 97.57 216.77 99.66 220.38 98.25 221.19 100.29 224.72"/><path class="cls-2" d="M966.58,623.85l-3.72-6.44a3.15,3.15,0,0,1-.52-1.93,2.63,2.63,0,0,1,1.32-1.82,2,2,0,0,1,2.23-.06,5.51,5.51,0,0,1,1.37,1.76l3.5,6.07L975,619l-4.41-7.63a7.71,7.71,0,0,0-1.37-1.83,4.13,4.13,0,0,0-1.66-.84,5.21,5.21,0,0,0-4.24.68,6,6,0,0,0-1.92,1.63,6.26,6.26,0,0,0-.9,2.36l-5.15-8.93-4.25,2.45,11.22,19.43Z" transform="translate(-847.5 -398.67)"/><path class="cls-2" d="M947,650a5.31,5.31,0,0,0-2.86.07l-1.13.27a2.21,2.21,0,0,1-1.35.06,1,1,0,0,1-.48-.45,1.09,1.09,0,0,1-.07-.83,1.78,1.78,0,0,1,.82-1,3.68,3.68,0,0,1,2.53-.37l-.16-3.16a10,10,0,0,0-4.28,1.17,4.92,4.92,0,0,0-2.43,2.92,4.57,4.57,0,0,0,.58,3.54A3.46,3.46,0,0,0,940,654a4.55,4.55,0,0,0,2.3,0l.95-.21a5,5,0,0,1,1.92-.27,1.1,1.1,0,0,1,.76.53,1.29,1.29,0,0,1,.13.93,1.85,1.85,0,0,1-1,1.11,4.83,4.83,0,0,1-3.47.37l.12,3.29a9.76,9.76,0,0,0,2.38-.09,7.48,7.48,0,0,0,2.59-1,5.35,5.35,0,0,0,2.84-3.28,4.7,4.7,0,0,0-.61-3.68A3.3,3.3,0,0,0,947,650Z" transform="translate(-847.5 -398.67)"/><path class="cls-2" d="M959.55,645.5a4.06,4.06,0,0,1-2,2.83,3.9,3.9,0,0,1-2.71.47,3.91,3.91,0,0,1-2.71-4.86,3.51,3.51,0,0,1,1.7-2,3.89,3.89,0,0,1,3.49-.26l-2.16-3.73a8.78,8.78,0,0,0-3.17,1,7.4,7.4,0,0,0-3.46,4.5,7.53,7.53,0,0,0,.74,5.49,7.37,7.37,0,0,0,4.35,3.33,7.57,7.57,0,0,0,5.7-.89,8.72,8.72,0,0,0,2.36-2.15Z" transform="translate(-847.5 -398.67)"/><path class="cls-2" d="M964.34,646.08a8.29,8.29,0,0,0,9.48-5.48,7.26,7.26,0,0,0-5.19-9,8.3,8.3,0,0,0-9.48,5.47,7.27,7.27,0,0,0,5.19,9ZM962.72,638a4,4,0,0,1,1.89-2.36,4.1,4.1,0,0,1,3-.44,3.76,3.76,0,0,1,2.31,1.75,3.77,3.77,0,0,1-1.52,5.2,4,4,0,0,1-3,.45,3.57,3.57,0,0,1-2.25-1.69A3.81,3.81,0,0,1,962.72,638Z" transform="translate(-847.5 -398.67)"/><path class="cls-2" d="M979.08,638a6.23,6.23,0,0,0,4.81-.86,6,6,0,0,0,3.1-3.79,5.62,5.62,0,0,0-.89-4.67l-4-6.91L979,623.6l4,6.86a3,3,0,0,1,.55,2.58,2.54,2.54,0,0,1-3,1.63,2.76,2.76,0,0,1-1.68-1.5l-4.11-7.12-3.12,1.8,4,6.91A6.46,6.46,0,0,0,979.08,638Z" transform="translate(-847.5 -398.67)"/><polygon class="cls-2" points="145.51 232.87 148.63 231.07 143.22 221.7 145.78 220.22 144.25 217.57 136.01 222.32 137.54 224.98 140.1 223.5 145.51 232.87"/><path class="cls-2" d="M1004.82,621.51a1.24,1.24,0,0,1-.72.12,2,2,0,0,1-1-.7l-.83,3.27a5.12,5.12,0,0,0,1.9.54,3.65,3.65,0,0,0,2.2-.56,4.49,4.49,0,0,0,2.29-2.83,4,4,0,0,0-.64-3.48l-4.78-8.27-3.12,1.8,4.74,8.2a2.11,2.11,0,0,1,.37,1.4A1.07,1.07,0,0,1,1004.82,621.51Z" transform="translate(-847.5 -398.67)"/><path class="cls-2" d="M1020.8,615.5l3.33-1.92-11.46-9.42-3.41,2,2.33,14.69,3.3-1.91-.36-2.48,4.36-2.52Zm-6.78-2-.93-4.65,3.6,3.11Z" transform="translate(-847.5 -398.67)"/><polygon class="cls-2" points="183.8 194.73 180.68 196.53 181.81 204.44 175.67 199.43 172.58 201.21 177.49 214.41 180.59 212.62 177.62 205.1 184.39 210.42 185.64 209.7 184.54 201.11 189.42 207.52 192.54 205.72 183.8 194.73"/><path class="cls-2" d="M1049.65,597.33a3.74,3.74,0,0,0-.48-2.87,3.43,3.43,0,0,0-2.08-1.73,3.49,3.49,0,0,0-2.06.22,2.15,2.15,0,0,0,.43-1.5,3.38,3.38,0,0,0-.51-1.67,3.7,3.7,0,0,0-2-1.83,3.91,3.91,0,0,0-3.17.58l-4.65,2.69,6.94,12,5-2.89A5.23,5.23,0,0,0,1049.65,597.33Zm-8.13-3.51-.57.34-1.36-2.34.58-.34a2,2,0,0,1,1.4-.33,1.43,1.43,0,0,1,.75.65,1.3,1.3,0,0,1,.17,1A1.83,1.83,0,0,1,1041.52,593.82Zm2.93,4.78-.7.41-1.46-2.53.65-.37a3.35,3.35,0,0,1,2.16-.72,1.43,1.43,0,0,1,.8.69,1.35,1.35,0,0,1,.2.92C1046,597.6,1045.31,598.1,1044.45,598.6Z" transform="translate(-847.5 -398.67)"/><path class="cls-2" d="M1052.17,581a8,8,0,0,0-3.71,4.53,7.25,7.25,0,0,0,5.2,9,8.3,8.3,0,0,0,9.48-5.47,7.27,7.27,0,0,0-5.2-9A7.94,7.94,0,0,0,1052.17,581Zm7,4.34a3.77,3.77,0,0,1-1.51,5.2,4,4,0,0,1-3,.45,3.51,3.51,0,0,1-2.24-1.68,3.84,3.84,0,0,1-.41-2.92,4,4,0,0,1,1.88-2.36,4.19,4.19,0,0,1,3-.44A3.74,3.74,0,0,1,1059.19,585.33Z" transform="translate(-847.5 -398.67)"/><path class="cls-2" d="M1077.88,582.54l-6.61-2.74a3.81,3.81,0,0,0,1.18-1.79A4,4,0,0,0,1072,575a4.57,4.57,0,0,0-2.59-2.11,4.48,4.48,0,0,0-3.55.63l-4.87,2.81,7,12,3.12-1.8-2.67-4.62,5.66,2.89Zm-8.87-4.37a2.68,2.68,0,0,1-1.23,1.36l-.59.34-1.72-3,.59-.34a2.45,2.45,0,0,1,1.77-.4,1.65,1.65,0,0,1,1,.77A1.72,1.72,0,0,1,1069,578.17Z" transform="translate(-847.5 -398.67)"/><polygon class="cls-2" points="238.54 179.16 237.01 176.51 233.3 178.66 232.1 176.58 235.61 174.55 234.08 171.9 230.57 173.93 229.41 171.93 233.13 169.79 231.6 167.14 224.76 171.08 231.71 183.11 238.54 179.16"/><polygon class="cls-2" points="242.9 166.81 239.39 168.84 238.23 166.84 241.95 164.69 240.42 162.04 233.59 165.99 240.53 178.01 247.36 174.07 245.83 171.42 242.12 173.56 240.92 171.49 244.43 169.46 242.9 166.81"/><path class="cls-2" d="M1013.33,666.93l1.57-5.1c.84-2.73,1-5.17-.46-7.7a7.76,7.76,0,0,0-4.82-3.82A10,10,0,0,0,998.28,657a9.27,9.27,0,0,0,1,6.88l5.41-3.12a5.85,5.85,0,0,1-.71-2.9,2.52,2.52,0,0,1,1.28-1.82,2.26,2.26,0,0,1,1.83-.25,3.46,3.46,0,0,1,1.72,1.58,6.52,6.52,0,0,1,.73,3.77,39,39,0,0,1-1.19,7.49l-2,8.29,16.16-9.32-2.56-4.44Z" transform="translate(-847.5 -398.67)"/><path class="cls-2" d="M1027.72,640.14a9.09,9.09,0,0,0-11.12,6.42c-.78,2.82-.28,6.4,1.77,10a13.21,13.21,0,0,0,7.73,6.49,9.11,9.11,0,0,0,11.12-6.42,13.2,13.2,0,0,0-1.76-9.94C1033.41,643.1,1030.56,640.88,1027.72,640.14Zm3.85,15.81a2.69,2.69,0,0,1-3.2,1.85c-1.77-.34-3.86-2.64-4.79-4.24-1.08-1.87-1.83-4.7-1.28-6.27a2.69,2.69,0,0,1,3.2-1.84c1.6.32,3.78,2.49,4.81,4.27S1032.13,654.34,1031.57,656Z" transform="translate(-847.5 -398.67)"/><path class="cls-2" d="M1049.59,646l1.57-5.09c.83-2.74,1-5.17-.46-7.7a7.75,7.75,0,0,0-4.83-3.82,10,10,0,0,0-11.33,6.66,9.23,9.23,0,0,0,1,6.88l5.41-3.13a5.73,5.73,0,0,1-.71-2.89,2.52,2.52,0,0,1,1.28-1.83,2.3,2.3,0,0,1,1.83-.25,3.51,3.51,0,0,1,1.72,1.59,6.6,6.6,0,0,1,.73,3.77,39.09,39.09,0,0,1-1.19,7.49l-2,8.29,16.16-9.33-2.57-4.44Z" transform="translate(-847.5 -398.67)"/><path class="cls-2" d="M1067.72,635.53l1.57-5.1c.83-2.73,1-5.17-.46-7.7a7.75,7.75,0,0,0-4.83-3.82,10,10,0,0,0-11.33,6.66,9.23,9.23,0,0,0,1,6.88l5.41-3.12a5.75,5.75,0,0,1-.71-2.9,2.52,2.52,0,0,1,1.28-1.82,2.26,2.26,0,0,1,1.83-.25,3.46,3.46,0,0,1,1.72,1.58,6.6,6.6,0,0,1,.73,3.77,39,39,0,0,1-1.19,7.49l-2,8.29,16.16-9.32-2.57-4.44Z" transform="translate(-847.5 -398.67)"/><path class="cls-2" d="M960.87,656.62l2,13,2.91-1.68-.31-2.2,3.85-2.22,1.68,1.41,2.94-1.7-10.11-8.31Zm6.56,5.18-2.36,1.36-.82-4.1Z" transform="translate(-847.5 -398.67)"/><polygon class="cls-2" points="129.13 259.88 124.35 251.6 121.6 253.19 127.72 263.8 133.78 260.3 132.44 257.96 129.13 259.88"/><polygon class="cls-2" points="136.61 255.56 131.83 247.29 129.08 248.88 135.2 259.48 141.26 255.99 139.91 253.65 136.61 255.56"/><polygon class="cls-2" points="167.47 240.85 165.87 227.64 162.88 229.36 164.03 237.31 157.75 232.32 154.75 234.06 165.33 242.09 167.47 240.85"/><polygon class="cls-2" points="179.14 234.12 177.79 231.78 174.51 233.67 173.46 231.84 176.56 230.05 175.21 227.72 172.11 229.5 171.09 227.74 174.36 225.85 173.01 223.51 166.98 226.99 173.11 237.6 179.14 234.12"/><path class="cls-2" d="M1037.2,626.69l-5.83-2.42a3.38,3.38,0,0,0,1-1.58A3.53,3.53,0,0,0,1032,620a4.05,4.05,0,0,0-2.29-1.87,4,4,0,0,0-3.13.56l-4.3,2.48,6.13,10.61,2.75-1.59-2.35-4.07,5,2.55Zm-7.82-3.85a2.41,2.41,0,0,1-1.09,1.2l-.53.3-1.51-2.63.52-.3a2.2,2.2,0,0,1,1.56-.35,1.44,1.44,0,0,1,.88.68A1.6,1.6,0,0,1,1029.38,622.84Z" transform="translate(-847.5 -398.67)"/><path class="cls-2" d="M1042.55,620.76a1.06,1.06,0,0,1-.64.12,1.75,1.75,0,0,1-.87-.63l-.73,2.89a4.45,4.45,0,0,0,1.68.47,3.18,3.18,0,0,0,1.94-.48,3.94,3.94,0,0,0,2-2.5,3.55,3.55,0,0,0-.56-3.07l-4.21-7.3-2.75,1.59,4.17,7.23a1.86,1.86,0,0,1,.33,1.23A.89.89,0,0,1,1042.55,620.76Z" transform="translate(-847.5 -398.67)"/><path class="cls-2" d="M1056.65,615.47l2.94-1.7-10.12-8.31-3,1.74,2,13,2.91-1.68-.31-2.2,3.85-2.22Zm-6-1.73-.82-4.1,3.17,2.74Z" transform="translate(-847.5 -398.67)"/><path class="cls-2" d="M1065.38,604.51a4,4,0,0,0-.58-3.19,3.78,3.78,0,0,0-2.48-2,4.21,4.21,0,0,0-3.23.59l-4.39,2.54,6.12,10.61,2.75-1.59-2-3.52,1.74-1A4.08,4.08,0,0,0,1065.38,604.51Zm-3.23-.32a2.05,2.05,0,0,1-1,1l-.92.54-1.53-2.64.94-.55a1.88,1.88,0,0,1,1.4-.29,1.49,1.49,0,0,1,.87.77A1.38,1.38,0,0,1,1062.15,604.19Z" transform="translate(-847.5 -398.67)"/><path class="cls-2" d="M1067.3,595.17l2,13,2.91-1.68-.31-2.19,3.85-2.23,1.68,1.41,2.94-1.7-10.12-8.3Zm6.55,5.19-2.35,1.36-.82-4.11Z" transform="translate(-847.5 -398.67)"/><polygon class="cls-2" points="235.85 187.23 239.6 193.72 230.78 190.16 228.03 191.75 234.15 202.36 236.91 200.77 233.16 194.28 241.98 197.84 244.73 196.25 238.6 185.64 235.85 187.23"/><path class="cls-2" d="M1001.74,647.36a8.7,8.7,0,0,0,1.16-.54,7,7,0,0,0,3.27-4,6.42,6.42,0,0,0-4.58-7.94,7,7,0,0,0-5.09.84,7.85,7.85,0,0,0-1,.73,7,7,0,0,0-.55.54,6.51,6.51,0,0,0-1.68,2.72,6,6,0,0,0-.19,2.42,7.43,7.43,0,0,0,.16.82,6.6,6.6,0,0,0,.66,1.7,6.23,6.23,0,0,0,1.16,1.42l.31.11a3.32,3.32,0,0,0,3.6-1.62,1.2,1.2,0,0,1-.2,0,3.08,3.08,0,0,1-2-1.48,3.38,3.38,0,0,1-.36-2.57.76.76,0,0,1,.06-.16,2.39,2.39,0,0,1,.15-.37A3.59,3.59,0,0,1,998,638.4a3.66,3.66,0,0,1,2.28-.43c.11,0,.22,0,.34,0a3.06,3.06,0,0,1,.48.17,3.23,3.23,0,0,1,2,3.4A6.6,6.6,0,0,1,1003,645,6.83,6.83,0,0,1,1001.74,647.36Z" transform="translate(-847.5 -398.67)"/><path class="cls-2" d="M1000.45,648.1a6.88,6.88,0,0,0,.55-.53,6.55,6.55,0,0,0,1.68-2.73,6.22,6.22,0,0,0,.19-2.38,6,6,0,0,0-.17-.86,6.64,6.64,0,0,0-.64-1.68,6.81,6.81,0,0,0-1.13-1.4,2.6,2.6,0,0,0-.36-.13,3.24,3.24,0,0,0-2.34.34A3.33,3.33,0,0,0,997,640l.18,0a3.27,3.27,0,0,1,2.35,4.07c0,.06,0,.11,0,.16s-.09.25-.14.38a3.52,3.52,0,0,1-1.46,1.52,3.45,3.45,0,0,1-2.23.46c-.14,0-.27,0-.4-.06a2.58,2.58,0,0,1-.42-.14,3.08,3.08,0,0,1-1.57-1.35,3.4,3.4,0,0,1-.43-2.09,6.52,6.52,0,0,1,0-3.37,6.89,6.89,0,0,1,1.31-2.4,7.18,7.18,0,0,0-1.16.54,7,7,0,0,0-3.27,4,6.39,6.39,0,0,0,4.58,7.93,7,7,0,0,0,5.09-.84A7.57,7.57,0,0,0,1000.45,648.1Z" transform="translate(-847.5 -398.67)"/><path class="cls-3" d="M983.16,398.67,847.5,477V633.65L983.16,712l135.67-78.33V477Zm126,229.4-126,72.74L879.61,641l-10.55-6.09-11.89-6.86V482.59l11.89-6.87,10.55-6.09,103.55-59.79,14.35,8.29,10.55,6.09,101.1,58.37Z" transform="translate(-847.5 -398.67)"/></svg>